<?xml version="1.0" encoding="UTF-8" standalone="no"?>
<svg
   xmlns:dc="http://purl.org/dc/elements/1.1/"
   xmlns:cc="http://creativecommons.org/ns#"
   xmlns:rdf="http://www.w3.org/1999/02/22-rdf-syntax-ns#"
   xmlns:svg="http://www.w3.org/2000/svg"
   xmlns="http://www.w3.org/2000/svg"
   version="1.1"
   id="svg2"
   xml:space="preserve"
   width="293.33774"
   height="247.99936"
   viewBox="0 0 293.33774 247.99936"><metadata
     id="metadata8"><rdf:RDF><cc:Work
         rdf:about=""><dc:format>image/svg+xml</dc:format><dc:type
           rdf:resource="http://purl.org/dc/dcmitype/StillImage" /><dc:title></dc:title></cc:Work></rdf:RDF></metadata><defs
     id="defs6" /><g
     id="g10"
     transform="matrix(1.3333333,0,0,-1.3333333,-2.936526e-5,247.99998)"><path
       id="path14"
       style="fill:#2751a7;fill-opacity:1;fill-rule:nonzero;stroke:none;stroke-width:0.1"
       d="m 164.901,43.0609 c 0,0 5.328,0.9789 9.37,0.3672 4.041,-0.6133 7.288,-1.6551 7.594,-2.0222 0.307,-0.3668 1.715,-2.5098 -0.061,-3.368 -1.776,-0.857 -2.756,-2.143 -8.942,0.8582 -6.186,3 -4.349,2.6328 -4.961,2.8769 -0.613,0.2469 -4.103,1.1032 -3,1.2879 v 0" /><path
       id="path16"
       style="fill:#2751a7;fill-opacity:1;fill-rule:nonzero;stroke:none;stroke-width:0.1"
       d="m 150.323,42.0199 c 0,0 0.184,0.7949 1.715,0.8571 1.532,0.0601 2.88,0 3.858,-0.1231 0.981,-0.1219 3.246,-0.307 4.778,-0.6738 0.23,-0.0551 4.114,-1.0242 5.022,-1.6531 0.797,-0.552 2.021,-2.3282 0.735,-3.1848 -1.287,-0.857 -3.124,-1.3473 -4.226,-1.3473 -1.103,0 -3.368,0.3672 -4.594,0.9801 -1.224,0.6121 -6.491,3.9801 -6.798,4.2262 -0.306,0.2449 -0.919,0.2449 -0.49,0.9187 v 0" /><path
       id="path18"
       style="fill:#2751a7;fill-opacity:1;fill-rule:nonzero;stroke:none;stroke-width:0.1"
       d="m 141.871,41.3461 c 0,0 1.715,0.3668 2.45,0.1828 0.735,-0.1828 1.593,-0.6117 2.205,-0.9187 0.613,-0.3051 1.347,-0.5512 2.511,-1.1641 1.164,-0.6121 2.327,-0.9789 2.878,-1.1629 0.552,-0.1832 1.838,-0.7352 2.083,-0.9801 0.245,-0.2441 0.49,-1.8992 0.122,-2.082 -0.367,-0.184 -1.103,-0.552 -1.408,-0.6742 -0.307,-0.1219 -1.103,-0.2449 -1.592,-0.2449 -0.49,0 -2.021,0.1832 -2.328,0.2449 -0.307,0.0613 -2.634,1.164 -2.94,1.4703 -0.306,0.3058 -2.879,2.3269 -3.063,2.6328 -0.183,0.307 -1.836,1.716 -0.918,2.6961 v 0" /><path
       id="path20"
       style="fill:#2751a7;fill-opacity:1;fill-rule:nonzero;stroke:none;stroke-width:0.1"
       d="m 132.868,42.8148 c 0,0 -0.858,-0.1218 -0.919,-0.4277 -0.062,-0.307 -0.062,-1.1641 0.184,-1.4699 0.245,-0.307 1.041,-1.1641 1.285,-1.5313 0.246,-0.3668 0.735,-1.532 0.858,-1.8988 0.123,-0.368 1.408,-2.0832 1.776,-2.3891 0.368,-0.3058 2.572,-1.6539 3.92,-1.7761 1.348,-0.1231 2.573,0.3672 2.879,0.6742 0.306,0.3059 0.918,1.593 0.735,2.0211 -0.183,0.4277 -2.45,2.7558 -3.001,3.0617 -0.552,0.307 -2.695,2.1441 -3.552,2.45 -0.858,0.3063 -2.94,1.2859 -4.165,1.2859 v 0" /><path
       id="path22"
       style="fill:#2751a7;fill-opacity:1;fill-rule:nonzero;stroke:none;stroke-width:0.1"
       d="m 127.601,43.8559 c 0,0 -1.531,0.5511 -2.204,0.491 -0.674,-0.0617 -1.042,-1.1028 -1.042,-1.3481 0,-0.2449 0,-2.4488 -0.062,-2.8168 -0.061,-0.3679 -0.306,-2.266 -0.489,-2.573 -0.183,-0.3059 -0.306,-1.8981 -0.183,-2.2649 0.122,-0.3679 0.857,-2.0222 2.021,-2.3902 1.163,-0.3668 2.755,-0.3668 3.552,-0.1219 0.795,0.245 2.389,1.9602 2.756,3.3078 0.367,1.3473 -0.796,4.7153 -2.143,6.0024 -1.349,1.2859 -1.9,1.6527 -2.206,1.7137 v 0" /><path
       id="path24"
       style="fill:#2751a7;fill-opacity:1;fill-rule:nonzero;stroke:none;stroke-width:0.1"
       d="m 117.618,44.8359 c 0,0 -3.307,0 -3.919,-0.2437 -0.613,-0.2453 -6.064,-2.3274 -6.738,-2.8793 -0.673,-0.552 -2.571,-2.2051 -3.123,-3.6129 -0.55,-1.4102 -0.551,-3.5531 0.184,-4.227 0.735,-0.6742 3.062,-1.041 4.349,-0.3671 1.286,0.6742 3.979,3.798 4.47,4.716 0.49,0.9191 3.307,5.2062 3.859,5.5121 0.551,0.3058 0.796,0.8582 0.979,0.8582 0.184,0 0.245,0.0598 -0.061,0.2437 v 0" /><path
       id="path26"
       style="fill:#2751a7;fill-opacity:1;fill-rule:nonzero;stroke:none;stroke-width:0.1"
       d="m 106.534,45.2039 c 0,0 -3.308,-0.0609 -4.839,-0.4289 -1.532,-0.368 -4.2262,-1.9602 -5.2059,-2.3879 -0.8172,-0.3582 -2.9399,-1.409 -3.3688,-2.0223 -0.4289,-0.6117 -2.0219,-2.8168 -0.9805,-4.4089 1.0422,-1.593 3.4297,-2.4508 5.0836,-2.0207 1.1032,0.2859 2.8896,1.3117 4.8996,3.6128 1.005,1.15 1.982,3.0321 3.124,4.4719 1.654,2.0821 1.96,2.7551 1.96,2.7551 0,0 -0.245,0.3059 -0.673,0.4289 v 0" /><path
       id="path28"
       style="fill:#2751a7;fill-opacity:1;fill-rule:nonzero;stroke:none;stroke-width:0.1"
       d="m 94.9586,44.5922 c -0.4277,-0.0301 -8.3293,-1.5313 -9.3703,-1.8383 -1.0414,-0.3059 -3.5528,-1.8367 -3.7981,-2.4488 -0.2449,-0.6141 -1.4699,-2.818 0.1227,-3.6153 1.5926,-0.7949 3.0012,-0.4277 3.4297,-0.3058 0.4293,0.123 3.0012,1.4699 3.3074,1.716 0.307,0.2441 4.9613,4.532 5.3289,4.8988 0.3672,0.3672 1.8984,1.6532 0.9797,1.5934 v 0" /><path
       id="path30"
       style="fill:#2751a7;fill-opacity:1;fill-rule:nonzero;stroke:none;stroke-width:0.1"
       d="m 64.4961,23.1461 c 0,0 5.4297,-3.3063 7.0824,-4.643 1.6524,-1.3383 5.1153,-4.4851 5.7445,-5.4301 0.6293,-0.9449 2.8329,-3.0699 3.62,-3.148 0.7863,-0.07812 4.2492,0.0781 3.541,2.8328 -0.7082,2.7551 -6.6891,7.6344 -11.332,9.1293 -4.6426,1.4949 -7.6336,1.416 -8.6559,1.259 v 0" /><path
       id="path32"
       style="fill:#2751a7;fill-opacity:1;fill-rule:nonzero;stroke:none;stroke-width:0.1"
       d="m 29.9496,26.2148 c 0,0 1.8887,1.9672 2.5188,1.809 0.6293,-0.1566 0.8656,-0.6289 0.8656,-1.5738 0,-0.943 -0.7086,-6.373 -1.1809,-7.8691 -0.4718,-1.4938 -1.3379,-6.1379 -1.9672,-6.8457 -0.6293,-0.709 -2.6523,-4.11606 -7.3183,-2.59614 -3.3836,1.10074 -2.9903,5.42894 -2.518,6.05894 0.4723,0.629 8.341,10.2309 9.6,11.0168 v 0" /><path
       id="path34"
       style="fill:#2751a7;fill-opacity:1;fill-rule:nonzero;stroke:none;stroke-width:0.1"
       d="m 36.2453,25.8988 c 0,0 1.259,0.0801 1.7313,-0.2359 0.4718,-0.3129 3.1472,-3.541 3.3836,-4.327 0.2359,-0.7871 2.5179,-6.925 1.2593,-10.939 C 41.3602,6.38398 39.6293,4.96797 38.8418,4.88984 38.0551,4.81016 35.616,4.65195 34.3566,5.75391 33.0977,6.85586 32.1531,9.925 33.0191,12.2078 c 0.8657,2.2813 2.9903,9.5211 2.8329,11.0961 -0.1575,1.5723 -0.0786,2.2801 0.3933,2.5949 v 0" /><path
       id="path36"
       style="fill:#2751a7;fill-opacity:1;fill-rule:nonzero;stroke:none;stroke-width:0.1"
       d="m 44.193,11.893 c 0,0 -1.0231,-7.86995 0.7082,-9.20589 1.7316,-1.33906 5.0371,-1.575 5.8238,-1.33906 0.7867,0.23593 1.809,1.41601 2.3605,2.98984 0.5504,1.57422 0.3149,6.76721 -5.4296,7.79021 C 41.9105,13.1512 44.193,11.893 44.193,11.893 v 0" /><path
       id="path38"
       style="fill:#2751a7;fill-opacity:1;fill-rule:nonzero;stroke:none;stroke-width:0.1"
       d="m 53.5574,18.975 c -0.9863,0.1398 -1.5742,-0.0789 -1.5742,-0.0789 0,0 -1.2586,-0.8652 0.3938,-3.3832 1.6527,-2.5188 3.0687,-3.857 2.9902,-8.89298 C 55.2887,1.58398 58.2008,-0.146875 60.325,0.0101563 62.45,0.167188 64.1027,2.76406 64.1813,5.75391 64.2598,8.74492 62.35,15.093 56.784,18.0309 c -2.0356,1.0742 -2.6574,0.864 -3.2266,0.9441 v 0" /><path
       id="path40"
       style="fill:#2751a7;fill-opacity:1;fill-rule:nonzero;stroke:none;stroke-width:0.1"
       d="m 60.1676,21.0211 c 0,0 -2.2817,0 -1.8094,-1.3371 0.1656,-0.4699 0.4816,-0.9121 0.9441,-1.3391 0.6047,-0.559 1.595,-1.0418 2.518,-1.8879 0.9442,-0.866 2.282,-3.0691 3.2266,-6.68786 0.3906,-1.5 0.9222,-2.95898 1.9672,-4.09414 1.4789,-1.60391 3.7351,-2.57109 5.9019,-2.20195 3.6992,0.63008 4.3281,4.56289 3.6195,5.98008 -0.7082,1.41597 -4.8,7.39807 -9.9152,9.60077 -5.1144,2.2031 -5.8234,1.809 -6.4527,1.9672 v 0" /><path
       id="path42"
       style="fill:#2751a7;fill-opacity:1;fill-rule:nonzero;stroke:none;stroke-width:0.1"
       d="m 30.5016,43.684 c 0,0 -7.2399,0.2359 -8.8137,0.6289 -1.5738,0.3941 -4.7211,0.866 -7.3969,2.7551 -2.6758,1.8879 -8.65623,3.8558 -9.7578,3.6191 -1.10195,-0.2359 -4.878903,-1.8883 -4.013669,-4.957 0.865629,-3.0692 3.698829,-3.934 4.092189,-4.091 0.39375,-0.159 9.38668,-2.6571 15.26598,-1.4961 5.9813,1.18 10.3879,2.8332 10.6239,3.541 v 0" /><path
       id="path44"
       style="fill:#2751a7;fill-opacity:1;fill-rule:nonzero;stroke:none;stroke-width:0.1"
       d="m 28.377,39.6711 c 0,0 -4.0922,-1.0231 -5.3512,-1.0231 -1.2586,0 -7.6332,-0.473 -8.8922,-0.3152 C 13.4953,38.4129 8.8707,38.6039 7.52344,39.277 7.05117,39.5141 1.55859,41.975 0.283594,38.3328 -0.817969,35.1859 1.54258,34.084 3.0375,33.4539 c 1.4957,-0.6301 6.37461,-0.9437 8.6563,-0.5508 1.8062,0.3117 6.6949,1.484 9.4433,2.518 0.8621,0.325 2.0945,0.8258 2.4395,1.023 1.6523,0.945 4.2496,2.3618 4.8004,3.227 v 0" /><path
       id="path46"
       style="fill:#2751a7;fill-opacity:1;fill-rule:nonzero;stroke:none;stroke-width:0.1"
       d="m 28.141,35.8941 c 0,0 -2.5183,-0.473 -4.407,-1.1019 -1.8891,-0.6301 -3.4625,-1.182 -4.2496,-1.4172 -0.7867,-0.2359 -4.8785,-1.416 -6.059,-1.573 C 12.2445,31.6449 7.52305,31.1719 6.02813,31.093 4.5332,31.0148 2.01445,28.9691 1.93594,28.3391 c -0.07852,-0.6289 -0.6293,-2.911 2.125,-4.25 2.7539,-1.3371 4.48554,-0.9442 6.68906,-0.1571 2.2031,0.7871 10.4656,5.745 11.5672,6.2969 1.1019,0.5492 8.1848,5.0352 5.8238,5.6652 v 0" /><path
       id="path48"
       style="fill:#2751a7;fill-opacity:1;fill-rule:nonzero;stroke:none;stroke-width:0.1"
       d="m 19.957,25.1121 c 0,0 -8.9718,-2.5172 -9.3648,-4.0133 -0.393,-1.4949 -0.94415,-4.3277 0.9441,-5.3508 1.8891,-1.0218 6.2168,-0.3152 7.6336,1.102 1.4164,1.416 4.4852,4.7988 4.4852,4.7988 0,0 -0.1571,4.566 -3.6981,3.4633 v 0" /><path
       id="path50"
       style="fill:#2751a7;fill-opacity:1;fill-rule:nonzero;stroke:none;stroke-width:0.1"
       d="m 21.8301,178.72 c -2.1688,2.639 -1.3832,4.84 -1.3832,4.84 0,0 0.7871,4.913 6.8261,0.796 6.0387,-4.118 12.8157,-16.213 12.8157,-16.213 0,0 9.4957,-16.907 11.9258,-22.189 1.7949,-3.904 8.1343,-18.094 8.9582,-21.663 0.8226,-3.568 1.4277,-11.734 0.3746,-16.219 -0.5399,-2.3 -0.9739,-7.505 -1.7258,-12.7318 C 58.8883,90.2449 57.9754,85.15 57.575,83.6828 56.752,80.6629 55.4906,68.5512 56.9188,66.1191 c 1.4656,-2.4953 5.996,-1.305 7.6437,-1.8531 1.6465,-0.5488 5.1723,-1.3129 8.1059,-6.7941 0.4449,-0.8309 0.355,-1.8539 0.8882,-2.5481 0.2352,-0.3066 0.6372,-0.3668 0.9262,-0.6168 0.6449,-0.557 2.0981,-1.316 4.1305,-2.625 2.1469,-1.3851 3.0492,-2.355 3.0492,-2.355 0,0 14.2953,0.1152 18.4135,0.1152 4.117,0 19.09,0.2617 25.129,0.8117 6.039,0.5492 22.335,0.7231 25.629,0.1742 3.295,-0.55 14.964,-0.9902 20.153,-2.182 2.856,-0.6563 6.888,-1.8039 10.731,-2.6641 3.913,-0.875 8.056,-1.7148 10.423,-1.891 2.792,-0.2078 11.607,-0.3871 17.139,0.811 4.96,1.0742 8.106,0.8878 8.106,0.8878 0,0 5.394,-0.6289 0.695,-4.7089 -4.401,-3.8227 -30.463,0.6871 -32.11,1.2371 -0.866,0.2879 -6.202,1.9359 -13.479,2.8152 -6.561,0.7918 -14.736,0.9148 -22.003,-0.3852 -1.597,-0.2859 -3.135,-0.4511 -4.246,-0.657 -3.236,-0.6019 -4.407,-0.9539 -5.172,-0.9262 -1.082,0.0391 -8.035,1.2321 -10.616,2.3161 C 126.595,46.702 108.375,47.05 96.9105,46.2 83.6992,45.2219 80.1844,42.9441 74.6941,34.9832 69.2039,27.023 60.6453,23.3789 60.6453,23.3789 c 0,0 -10.6535,-3.8348 -11.4773,-4.384 -0.3239,-0.2168 -1.1586,-1.0277 -1.1442,-1.6219 0.0227,-0.914 0.1692,-1.2871 1.3352,-1.6191 1.9211,-0.55 6.9617,-1.2519 7.7855,-1.5258 0.4703,-0.157 1.2203,-0.35 1.7477,-1.398 0.3965,-0.7891 0.159,-1.8442 -0.1582,-3.55901 -0.2016,-1.08711 -0.9414,0.19493 -1.7164,1.23911 -0.493,0.6636 -1.1766,1.1429 -1.1766,1.1429 0,0 -3.0512,0.8438 -3.0512,-0.2543 0,-0.4929 1.027,-0.6027 1.4309,-1.175 0.4941,-0.70271 0.1582,-1.78083 0.1582,-1.78083 0,0 -1.9703,-1.61914 -2.8598,0.50898 -0.2824,0.67618 -3.3043,2.35115 -6.9918,2.66995 -2.4957,0.216 -5.389,0.3711 -8.389,-1.1758 -1.1867,-0.61094 -2.1938,0.6668 -1.4938,1.398 1.0309,1.0778 2.0336,1.3668 2.0336,1.3668 l 7.5953,3.845 c 0,0 1.875,0.8582 -1.0355,7.8492 -0.8879,2.1328 -3.6145,3.309 -5.2566,3.8769 -3.8665,1.3399 -7.3778,-0.041 -7.3778,-0.041 0,0 -1.8394,-1.0711 -0.8222,-2.6922 0.6074,-0.9679 2.4246,-2.0566 4.989,-3.7808 3.736,-2.5129 1.8434,-4.4821 1.8434,-4.4821 l -1.2078,-0.8898 c 0,0 -0.5024,-0.0152 -0.6036,0.7937 -0.0953,0.7653 -1.0168,1.6192 -2.0027,2.2571 -1.5906,1.032 -4.9711,2.057 -5.4023,1.559 -0.684,-0.7918 -0.5868,-0.8399 -2.6055,-2.9879 0,0 -0.7262,0.0761 -0.7949,0.5082 -0.0516,0.3269 0.0773,0.9949 -0.0633,1.5258 -0.2383,0.8992 -0.6102,2.1539 -1.3664,3.146 -1.3899,1.8231 -4.5457,3.4168 -5.625,3.177 -1.5223,-0.3379 -2.0313,-0.6191 -2.5102,-0.7949 -0.2988,-0.109 -0.35,0.032 -0.35,0.032 0,0 0.1563,3.5649 3.9727,3.3367 2.6691,-0.159 6.0996,-0.7109 8.4848,0.0961 1.5195,0.5141 2.5886,1.318 3.3371,2.0653 1.9211,1.9218 3.4718,12.2289 5.9422,19.9148 2.4707,7.6859 9.6296,13.0672 12.1445,15.2109 1.8078,1.5422 4.175,8.284 5.3269,16.5602 1.0422,7.4891 1.9973,15.1844 1.9692,18.8379 -0.0387,4.979 -0.525,9.564 -1.5442,12.584 -1.0425,3.088 -2.8398,5.358 -3.0882,7.219 -0.5489,4.117 -0.309,10.19 -1.7758,15.904 -1.0598,4.126 -2.118,13.338 -7.4114,21.694 -3.9375,6.215 -9.6503,12.507 -14.939,15.865 -2.5141,1.596 -3.9684,2.466 -4.6707,3.32 v 0" /><path
       id="path52"
       style="fill:#ffffff;fill-opacity:1;fill-rule:nonzero;stroke:none;stroke-width:0.1"
       d="m 57.0512,59.1039 c 0,0 -0.6367,-5.0098 -0.7157,-5.5668 -0.0796,-0.557 0.5172,-2.1871 2.386,-2.3473 0.8176,-0.0687 2.173,0.1493 3.0226,0.7961 1.0918,0.8321 1.4426,2.4891 -0.716,4.534 -2.2672,2.1473 -2.5851,2.227 -2.5851,2.227 l -1.3918,0.357 v 0" /><path
       id="path54"
       style="fill:#2751a7;fill-opacity:1;fill-rule:nonzero;stroke:none;stroke-width:0.1"
       d="m 57.648,58.3891 c 0,0 -1.1531,-5.3692 0.2778,-6.0852 1.432,-0.716 3.2605,-0.318 3.6191,0.2391 0.3578,0.557 0.4367,4.0172 -3.8969,5.8461 v 0" /><path
       id="path56"
       style="fill:#ffffff;fill-opacity:1;fill-rule:nonzero;stroke:none;stroke-width:0.1"
       d="m 58.125,56.9969 c 0,0 -0.875,-2.7438 0.2781,-3.659 1.1535,-0.9141 2.625,-0.557 2.8239,-0.3981 0.1984,0.1602 -0.6762,3.4602 -3.102,4.0571 v 0" /><path
       id="path58"
       style="fill:#ffffff;fill-opacity:1;fill-rule:nonzero;stroke:none;stroke-width:0.1"
       d="m 53.9492,61.4109 c 0,0 -2.1875,-0.4769 -2.5457,-1.0339 -0.357,-0.5571 -0.7156,-1.3918 -0.3176,-1.5911 0.3973,-0.1988 0.8754,-0.1589 1.7899,0.7563 0.9144,0.9137 1.7097,1.9879 1.0734,1.9879" /><path
       id="path60"
       style="fill:#ffffff;fill-opacity:1;fill-rule:nonzero;stroke:none;stroke-width:0.1"
       d="m 50.091,57.7129 c -0.0687,0.416 0.2789,1.391 -0.198,1.5109 0,0 -1.4321,-1.034 -1.1532,-2.8238 0.2782,-1.7891 0.1278,-1.7141 1.4317,-0.9941 1.5109,0.8351 2.2664,2.4261 1.8289,2.5453 -0.4375,0.1187 -0.5969,-0.3973 -1.1133,-0.4762 -0.2406,-0.0379 -0.7348,-0.125 -0.7961,0.2379 v 0" /><path
       id="path62"
       style="fill:#ffffff;fill-opacity:1;fill-rule:nonzero;stroke:none;stroke-width:0.1"
       d="m 47.4672,54.5309 c 0,0 -0.5969,-1.8688 -0.3578,-3.3008 0.1652,-0.993 0.2781,-1.034 1.4711,-0.159 1.1929,0.875 3.8949,3.4598 2.2269,3.5789 -1.1133,0.0789 -1.7894,-1.193 -1.7894,-1.193 0,0 -0.7555,-0.5172 -0.7157,0.0399 0.0395,0.557 -0.1996,1.8293 -0.8351,1.034 v 0" /><path
       id="path64"
       style="fill:#ffffff;fill-opacity:1;fill-rule:nonzero;stroke:none;stroke-width:0.1"
       d="m 50.4891,51.9059 c 0,0 -0.5567,-1.152 -0.5168,-1.8289 0.0398,-0.6758 -0.2379,-2.6239 1.5109,-1.67 1.7508,0.9539 2.9606,2.9239 0.6367,2.227 -0.3976,-0.1192 -0.6367,-0.3981 -0.6367,-0.3981 0,0 -0.2238,0.2219 -0.2633,0.595 -0.0457,0.4339 -0.1097,0.9132 -0.1734,0.9562 -0.1199,0.0801 -0.1199,0.159 -0.5574,0.1188 v 0" /><path
       id="path66"
       style="fill:#ffffff;fill-opacity:1;fill-rule:nonzero;stroke:none;stroke-width:0.1"
       d="m 49.7332,47.532 c 0,0 -0.5965,-0.8359 -0.1984,-2.5449 0.3976,-1.7101 0.3976,-1.7101 0.3976,-1.7101 0,0 1.1934,0.5171 1.8293,1.3519 0.6367,0.8352 0.5176,1.3121 -0.2383,0.9941 -0.7554,-0.3179 -0.6363,-0.3179 -0.6363,-0.3179 0,0 -0.1191,1.6711 -0.5172,1.909 -0.3976,0.2379 -0.0398,0.3179 -0.6367,0.3179 v 0" /><path
       id="path68"
       style="fill:#ffffff;fill-opacity:1;fill-rule:nonzero;stroke:none;stroke-width:0.1"
       d="m 51.5234,43.0781 c 0,0 -1.5113,-0.7562 -1.3519,-1.2722 0.1586,-0.5168 1.0336,-2.8637 1.232,-3.0629 0.2,-0.1981 2.7449,2.7441 2.9832,3.182 0.2387,0.4371 -0.4375,1.193 -1.273,0.3172 C 52.2793,41.368 52.2,41.209 52.1602,41.6461 c -0.0403,0.4379 0.039,1.6699 -0.6368,1.432 v 0" /><path
       id="path70"
       style="fill:#ffffff;fill-opacity:1;fill-rule:nonzero;stroke:none;stroke-width:0.1"
       d="m 52.7563,47.85 c 0,0 0.9621,0.0488 1.5507,-0.398 0.395,-0.3 0.4856,-1 0.5172,-1.4309 0.0793,-1.0742 1.0336,0.2789 1.1531,0.398 0.1192,0.1188 0.5969,0.834 0.7559,0.477 0.159,-0.3582 -0.359,-1.6699 -0.7559,-1.9891 -0.3976,-0.3179 -2.6246,-2.0679 -2.9027,-2.0679 -0.2789,0 -0.7558,4.4148 -0.3183,5.0109 v 0" /><path
       id="path72"
       style="fill:#ffffff;fill-opacity:1;fill-rule:nonzero;stroke:none;stroke-width:0.1"
       d="m 70.5727,55.4059 c 0,0 -2.4664,-2.3457 -2.6254,-2.4661 -0.1586,-0.1187 -0.1582,-0.4757 -0.4371,-0.3168 -0.2786,0.1579 -0.9153,0.6758 -1.5114,0.7149 -0.5965,0.0402 -2.3058,-0.6359 -2.7836,-1.0731 -0.4773,-0.4378 -2.5453,-2.1878 -2.8636,-2.3859 -0.318,-0.1988 -0.7555,-0.518 -0.4371,-1.3141 0.3183,-0.7937 1.5113,-1.9078 1.8691,-2.2648 0.3578,-0.359 1.4719,-3.023 1.5508,-3.7789 0.0797,-0.7551 0.1988,-1.232 0.1988,-1.4313 0,-0.1988 0.3582,-0.1187 0.8356,0.7954 0.4769,0.9148 2.0679,3.2609 2.346,3.5789 0.279,0.3179 0.4375,0.3968 0.5567,0.1988 0.1191,-0.1988 0.0801,-0.5969 0.318,-0.557 0.239,0.0402 0.7957,1.0339 0.8351,1.3132 0.0402,0.2778 0.557,2.4661 0.4774,3.1418 -0.0793,0.675 0.1992,0.5961 0.4773,0.675 0.2781,0.0789 0.9945,0.0789 1.1934,0.4379 0.1984,0.3571 0.6363,3.4992 0.4769,4.0961 -0.1598,0.5961 -0.159,0.675 -0.4769,0.636 v 0" /><path
       id="path74"
       style="fill:#2751a7;fill-opacity:1;fill-rule:nonzero;stroke:none;stroke-width:0.1"
       d="m 65.0844,50.5148 c 0,0 -0.8008,-0.4578 -1.9883,-0.8347 -0.5953,-0.1891 -1.1531,-0.4781 -2.1875,-0.3992 -0.5215,0.041 0.0797,-1.0731 0.0797,-1.0731 0,0 1.9883,-2.1867 2.3859,-2.5848 0.4149,-0.4152 1.7102,-0.875 2.466,0 0.7555,0.875 0.8746,1.5911 0.5164,1.8692 -0.3578,0.2789 -1.5664,0.9867 -1.7097,1.2726 -0.2387,0.4774 -0.141,1.059 0,1.1532 0.2386,0.159 0.6761,0.239 0.4375,0.5968 v 0" /><path
       id="path76"
       style="fill:#2751a7;fill-opacity:1;fill-rule:nonzero;stroke:none;stroke-width:0.1"
       d="m 70.2543,54.2531 c 0,0 -1.7898,-1.8301 -2.1871,-1.909 -0.3981,-0.0793 -0.2781,-0.198 -0.0801,-0.4769 0.1988,-0.2793 0.3578,-0.5172 0.3578,-0.6774 0,-0.1589 0.3188,0.0403 0.3188,0.3192 0,0.2781 1.4711,1.6308 1.6699,1.6308 0.1984,0 0.4379,0.8352 -0.0793,1.1133 v 0" /><path
       id="path78"
       style="fill:#ffffff;fill-opacity:1;fill-rule:nonzero;stroke:none;stroke-width:0.1"
       d="m 67.3516,43.5559 c 0,0 -0.6368,-0.2789 -0.8356,-1.75 -0.1992,-1.4719 -0.1594,-2.3071 -0.4371,-2.625 -0.2785,-0.3188 -0.5176,-1.6297 0.159,-0.875 0.6758,0.7562 1.7492,2.425 1.8293,2.7043 0.0793,0.2789 -0.1992,2.1867 -0.7156,2.5457 v 0" /><path
       id="path80"
       style="fill:#ffffff;fill-opacity:1;fill-rule:nonzero;stroke:none;stroke-width:0.1"
       d="m 67.6293,44.4699 c 0,0 0.7953,-1.8289 0.875,-2.307 0.0797,-0.477 0.3578,-0.2777 0.9941,0.518 0.6368,0.7953 2.4258,3.5793 2.0684,3.8171 -0.3578,0.2379 -2.0684,-1.6699 -2.2672,-1.9089 -0.1984,-0.2379 -1.3125,0.398 -1.6703,-0.1192 v 0" /><path
       id="path82"
       style="fill:#ffffff;fill-opacity:1;fill-rule:nonzero;stroke:none;stroke-width:0.1"
       d="m 72.8395,53.0199 c 0,0 -1.4321,-2.2269 -1.6704,-3.141 -0.2386,-0.9148 -0.4378,-1.2738 0.0793,-1.8699 0.5172,-0.5961 1.0739,-1.432 0.9547,0 -0.1191,1.432 0.3578,2.8238 0.4379,3.1808 0.0789,0.359 0.5563,1.5911 0.1985,1.8301 v 0" /><path
       id="path84"
       style="fill:#ffffff;fill-opacity:1;fill-rule:nonzero;stroke:none;stroke-width:0.1"
       d="m 73.3961,52.9 c 0,0 -0.5965,-1.3512 -0.4773,-2.0672 0.1191,-0.7156 0.7949,-2.3859 1.2726,-2.4258 0.4774,-0.0398 1.432,0.875 1.5109,1.1539 0.0793,0.277 -0.7953,0.7153 -1.2722,1.2719 -0.477,0.557 -0.4375,1.9883 -1.034,2.0672 v 0" /><path
       id="path86"
       style="fill:#ffffff;fill-opacity:1;fill-rule:nonzero;stroke:none;stroke-width:0.1"
       d="m 34.3848,38.7289 c 0,0 -1.8399,-2.8469 -1.402,-3.1109 0.4379,-0.2629 0.9195,0.614 1.2266,0.4832 0.307,-0.1313 1.4898,-1.534 1.9277,-1.8403 0.4387,-0.3078 -0.3941,1.8403 -0.832,2.4969 -0.4383,0.657 -0.2192,2.1031 -0.9203,1.9711 v 0" /><path
       id="path88"
       style="fill:#ffffff;fill-opacity:1;fill-rule:nonzero;stroke:none;stroke-width:0.1"
       d="m 32.3258,34.5672 c 0,0 -1.6653,-2.5852 -1.1832,-2.891 0.4816,-0.3082 0.8324,0.525 1.139,0.7008 0.3067,0.175 0.8325,-0.3071 1.1832,-0.92 0.3504,-0.614 0.7883,-1.5769 1.0079,-1.184 0.2187,0.395 -0.3508,2.1911 -0.4821,2.5411 -0.1316,0.3507 -0.2629,1.7968 -1.0078,1.9281 -0.7449,0.1316 -0.3945,0.0437 -0.657,-0.175 v 0" /><path
       id="path90"
       style="fill:#ffffff;fill-opacity:1;fill-rule:nonzero;stroke:none;stroke-width:0.1"
       d="m 34.7352,34.698 c 0,0 0.7886,-0.525 1.6211,-1.446 0.8332,-0.92 2.0156,-1.795 2.0156,-1.9711 0,-0.1758 -0.3942,-0.5688 -1.0078,0.0871 -0.6137,0.657 -1.3578,1.534 -1.9278,1.6211 -0.5695,0.0879 -0.6136,-0.4371 -0.657,-0.6571 -0.0441,-0.2191 -0.5707,-0.5718 -0.3945,2.0602 0.0437,0.6566 0.3504,0.3058 0.3504,0.3058 v 0" /><path
       id="path92"
       style="fill:#ffffff;fill-opacity:1;fill-rule:nonzero;stroke:none;stroke-width:0.1"
       d="m 35.6117,32.0691 c 0,0 3.2856,-2.1461 3.3735,-2.4531 0.0878,-0.3058 3e-4,-0.657 -0.5258,-0.3941 -0.5258,0.2621 -2.9352,0.8332 -3.0668,0.9203 -0.1317,0.0867 -0.5696,2.4098 0.2191,1.9269 v 0" /><path
       id="path94"
       style="fill:#ffffff;fill-opacity:1;fill-rule:nonzero;stroke:none;stroke-width:0.1"
       d="m 45.4262,18.0488 c 0,0 -1.1391,-2.1898 -3.1989,-2.9347 -2.0589,-0.745 -2.2335,-0.8762 -2.4972,-0.9641 -0.2629,-0.0879 -3.4172,-1.6648 -3.8117,-1.8828 -0.3946,-0.2203 -0.9204,-0.7461 -0.8325,-1.0082 0.0871,-0.2629 0.0871,-0.527 0.7883,-0.0879 0.7016,0.4379 2.6289,0.657 3.593,0.832 0.9641,0.1758 3.3301,0.5258 4.8199,0.2199 1.4891,-0.307 2.1465,-0.3949 3.1543,-0.7019 1.0078,-0.3063 4.2504,-1.66602 4.8637,-2.54219 0.6133,-0.875 0.35,-0.78672 0.35,-0.78672 0,0 0.5254,0.08672 0.8765,0.61289 0.3504,0.52578 -0.1312,1.44612 -0.35,1.62192 -0.2195,0.175 -1.4902,0.7878 -1.2269,1.2699 0.2629,0.482 0.6133,0.35 1.3582,0.4383 0.7449,0.0878 1.5328,0.3937 2.3656,0.0437 0.8324,-0.3508 2.3664,-1.7961 2.3664,-2.32187 0,-0.52617 0.1746,-0.92109 0.3946,-0.43789 0.2187,0.47969 0.35,3.10976 0.0875,3.32886 -0.2633,0.22 -1.2637,1.225 -2.6696,1.445 -1.4054,0.2199 -2.7199,0.3082 -3.3769,0.3961 -0.6575,0.0871 -3.7242,0.8757 -4.0313,0.9199 -0.3062,0.0441 -1.7039,0.8441 -1.0512,2.1461 0.2188,0.439 0.6129,0.832 0.6129,0.832 0,0 -2.2781,-0.1312 -2.6722,-0.043 -0.1543,0.0348 -0.084,-0.4363 -0.0438,-0.5703" /><path
       id="path96"
       style="fill:#ffffff;fill-opacity:1;fill-rule:nonzero;stroke:none;stroke-width:0.1"
       d="m 43.8926,25.4539 c 0,0 3.8113,-0.875 4.2062,-1.1828 0.3942,-0.3063 1.0953,-1.0949 0.3942,-1.5332 -0.7004,-0.4379 -2.059,-0.132 -2.5414,0.0441 -0.4817,0.175 -1.2266,0.6141 -1.0078,0.6571 0.2199,0.0441 0.789,0.0871 0.9648,0.1308 0.175,0.0442 -0.8324,0.3949 -1.1836,0.527 -0.3508,0.1312 -1.4898,1.5769 -0.8324,1.357 v 0" /><path
       id="path98"
       style="fill:#ffffff;fill-opacity:1;fill-rule:nonzero;stroke:none;stroke-width:0.1"
       d="m 45.4262,21.1609 c 0,0 2.9351,0.7879 3.6801,0.7442 0.7453,-0.043 1.4464,-0.7012 1.0519,-1.0942 -0.3941,-0.3949 -0.9203,-1.0531 -1.4461,-1.0531 -0.5258,0 -0.7883,0.0891 -0.7883,0.0891 0,0 0.7883,0.8769 0.4813,0.9203 -0.3063,0.0437 -1.8399,0.0859 -2.2778,0.0437 -0.4382,-0.0437 -1.3144,0.1301 -0.7011,0.35 v 0" /><path
       id="path100"
       style="fill:#ffffff;fill-opacity:1;fill-rule:nonzero;stroke:none;stroke-width:0.1"
       d="m 49.8074,23.1762 c 0,0 3.1547,-0.0871 3.4617,-0.4383 0.3067,-0.35 0.0872,-1.0508 -0.2195,-1.182 -0.5441,-0.2329 -2.1375,-0.3547 -2.1469,-0.3508 -0.175,0.066 -0.2629,0.289 0,0.4379 0.2633,0.148 0.6578,0.2621 0.5266,0.35 -0.2641,0.1761 -2.5855,1.0082 -1.6219,1.1832 v 0" /><path
       id="path102"
       style="fill:#ffffff;fill-opacity:1;fill-rule:nonzero;stroke:none;stroke-width:0.1"
       d="m 54.0578,22.9129 c 0,0 -0.4383,-1.2258 0.0438,-1.1391 0.482,0.0883 1.9281,1.0082 2.8914,1.1391 0.964,0.132 1.1828,0.3512 0.6574,0.3512 -0.5262,0 -3.2422,-0.3063 -3.5926,-0.2629" /><path
       id="path104"
       style="fill:#ffffff;fill-opacity:1;fill-rule:nonzero;stroke:none;stroke-width:0.1"
       d="m 29.9043,30.9789 c 0,0 -1.5742,-1.4859 -2.9105,-1.9019 -1.3372,-0.4149 -2.2872,-0.3551 -2.6735,-0.3551 -0.3863,0 -5.7023,0.3551 -6.3262,0.3261 -0.6238,-0.03 -1.6632,0 -2.1976,-0.357 -0.5344,-0.3558 -1.5445,-1.782 -1.4852,-2.1379 0.0598,-0.357 0.1485,-0.2383 0.1485,-0.2383 0,0 1.3664,0.6243 1.9605,0.7133 0.5938,0.0891 1.5149,0.0598 2.3762,-0.2972 0.8609,-0.3571 2.8508,-1.693 3.3855,-2.02 0.5348,-0.325 1.3364,-1.723 1.6035,-2.2269 0.2672,-0.5051 0.6836,-2.8512 0.5348,-3.1781 -0.1484,-0.327 -0.089,-0.445 -0.089,-0.445 l 0.3863,-0.0597 c 0,0 1.9594,2.7918 2.4351,3 0.475,0.209 1.6336,-0.0012 1.9903,-0.0602 0.3558,-0.059 3.2367,-1.1281 4.0386,-1.6031 0.802,-0.475 1.8118,-1.3367 1.8707,-1.6938 0.0598,-0.355 0.327,-0.9211 0.2676,-1.0679 -0.0594,-0.1492 0.1785,-0.2082 0.1785,-0.2082 0,0 0.7723,0.475 1.1879,1.0691 0.4157,0.5938 0.1485,1.752 -0.2082,2.0789 -0.3562,0.327 -4.2761,3.386 -4.9301,3.9199 -0.6531,0.5352 -2.2273,1.6629 -2.2273,2.1102 0,0.4437 0.1484,1.6617 0.4754,1.9891 0.3269,0.3257 2.0195,1.5136 2.2867,1.4839 0.2672,-0.0293 -0.0598,0.268 -0.0598,0.268 0,0 -1.3062,-0.0891 -1.6035,-0.1781 -0.2965,-0.0899 -0.0886,0.8621 -0.4152,1.0699 v 0" /><path
       id="path106"
       style="fill:#ffffff;fill-opacity:1;fill-rule:nonzero;stroke:none;stroke-width:0.1"
       d="m 3.98242,47.3039 c 0,0 2.12461,1.1012 3.06875,0.9441 C 7.9957,48.091 9.09766,47.3828 9.49063,47.2262 9.88359,47.068 6.42188,46.0449 6.73633,45.5719 7.05117,45.1012 8.46758,41.8738 8.86094,41.6391 9.2543,41.402 6.65781,42.0309 6.26406,42.268 5.8707,42.5039 3.19531,46.5961 3.98242,47.3039 v 0" /><path
       id="path108"
       style="fill:#ffffff;fill-opacity:1;fill-rule:nonzero;stroke:none;stroke-width:0.1"
       d="m 13.6609,42.818 c 0,0 1.7317,1.2601 2.125,1.2601 0.3938,0 1.4161,-0.1582 1.7313,-0.1582 0.3148,0 -0.866,-0.8648 -0.7082,-1.259 0.1578,-0.3929 0.5508,-0.7078 0.9441,-1.1808 0.3938,-0.4723 -0.6293,-0.7082 -1.0226,-0.7082 -0.3938,0 -0.5508,-0.1571 -0.8657,-0.1571 -0.3144,0 -2.5183,2.0461 -2.2039,2.2032 v 0" /><path
       id="path110"
       style="fill:#ffffff;fill-opacity:1;fill-rule:nonzero;stroke:none;stroke-width:0.1"
       d="m 2.32969,37.4672 c 0,0 1.96719,-3.0692 2.28203,-3.1481 0.31445,-0.0781 2.12461,-0.157 2.12461,-0.157 0,0 -1.41641,2.0457 -1.10156,2.125 0.31484,0.0789 1.81015,0.6289 1.88867,0.8649 0.07851,0.2371 -1.73164,0.866 -2.36094,0.866 -0.6293,0 -2.43945,-0.393 -2.83281,-0.5508 v 0" /><path
       id="path112"
       style="fill:#ffffff;fill-opacity:1;fill-rule:nonzero;stroke:none;stroke-width:0.1"
       d="m 11.773,35.7359 c 0,0 2.2032,-1.3379 2.4391,-1.3379 0.2359,0 1.102,0.5508 1.102,0.5508 l -0.6301,0.6293 0.3152,0.4731 v 0.3148 h -0.8656 c 0,0 -2.0465,-0.393 -2.3606,-0.6301 v 0" /><path
       id="path114"
       style="fill:#ffffff;fill-opacity:1;fill-rule:nonzero;stroke:none;stroke-width:0.1"
       d="M 5.63477,28.8121 7.9168,29.1262 6.89336,26.6871 9.88359,25.9789 10.5922,25.8988 c 0,0 -1.25939,-1.1797 -1.57384,-1.1797 -0.31484,0 -4.95742,1.0231 -4.95742,1.4957 0,0.4723 1.25898,2.2821 1.57383,2.5973 v 0" /><path
       id="path116"
       style="fill:#ffffff;fill-opacity:1;fill-rule:nonzero;stroke:none;stroke-width:0.1"
       d="m 15.0773,21.4922 c 0,0 -2.0457,-0.3934 -2.439,-1.1 -0.3938,-0.7094 -0.7867,-2.3621 -0.7867,-2.3621 0,0 1.7312,-1.1012 2.4394,-1.1012 0.7082,0 2.675,-0.1578 3.6195,0.7871 0.5481,0.5481 -0.6488,0.591 -1.7308,0.8649 -0.7832,0.198 -1.4957,0.7082 -1.4957,0.7082 l 0.4726,2.4398" /><path
       id="path118"
       style="fill:#ffffff;fill-opacity:1;fill-rule:nonzero;stroke:none;stroke-width:0.1"
       d="m 20.9801,24.641 0.157,-1.4961 1.3379,0.0789 0.0785,-0.6289 c 0,0 -0.6293,-1.1008 -1.0226,-1.259 -0.3938,-0.1578 -3.0692,-0.3148 -2.9907,0 0.0789,0.3129 0.5508,2.2813 2.4399,3.3051 v 0" /><path
       id="path120"
       style="fill:#ffffff;fill-opacity:1;fill-rule:nonzero;stroke:none;stroke-width:0.1"
       d="m 23.5758,15.9051 c 0,0 0.9441,-2.7539 1.259,-2.675 0.3148,0.0789 4.4855,0.2359 4.4855,0.2359 0,0 -0.7867,-1.4949 -1.023,-1.6519 -0.236,-0.1582 -4.3282,-0.236 -4.8789,-0.709 -0.5508,-0.4711 -1.8887,2.675 -1.7317,3.0699 0.1578,0.3922 1.2594,1.4172 1.8891,1.7301 v 0" /><path
       id="path122"
       style="fill:#ffffff;fill-opacity:1;fill-rule:nonzero;stroke:none;stroke-width:0.1"
       d="m 27.5895,20.784 c 0,0 0.2355,-0.8649 0.4718,-1.3371 0.236,-0.4719 0.7867,-0.2348 1.1805,0 0.3934,0.2371 1.4164,0.3941 1.4164,0.3941 0,0 0.4723,-1.4172 -0.4723,-1.889 -0.9437,-0.4731 -3.1472,-1.3391 -3.305,-0.8649 -0.1575,0.4719 -0.3145,2.9879 -0.0786,3.1461 0.2364,0.159 0.5512,0.2379 0.7872,0.5508 v 0" /><path
       id="path124"
       style="fill:#ffffff;fill-opacity:1;fill-rule:nonzero;stroke:none;stroke-width:0.1"
       d="m 34.2781,9.76914 0.8653,0.31286 1.9679,-1.57419 3.0688,0.94532 0.4722,-0.63008 c 0,0 -2.6757,-1.88789 -3.0687,-2.0461 -0.3938,-0.15703 -2.4402,1.10196 -3.3055,2.99219 v 0" /><path
       id="path126"
       style="fill:#ffffff;fill-opacity:1;fill-rule:nonzero;stroke:none;stroke-width:0.1"
       d="M 37.6621,18.1871 36.875,17.3219 c 0,0 1.7309,-2.0457 1.9668,-2.0457 0.2367,0 1.9676,1.8886 1.9676,1.8886 v 1.2602 l -0.393,0.2352 -1.4949,-1.3383 c 0,0 -0.7086,0.5511 -1.2594,0.8652 v 0" /><path
       id="path128"
       style="fill:#ffffff;fill-opacity:1;fill-rule:nonzero;stroke:none;stroke-width:0.1"
       d="m 46.0031,8.82305 c 0,0 -0.7078,-1.96719 -0.5508,-2.28086 C 45.6098,6.22695 48.1277,3.86484 48.443,3.70898 48.757,3.55195 51.984,5.20313 52.2992,5.675 52.6137,6.14805 52.3777,7.09219 52.141,7.24883 51.9051,7.40703 49.5438,5.83281 49.3078,5.75391 49.0723,5.675 46.1605,8.27305 46.0031,8.82305 v 0" /><path
       id="path130"
       style="fill:#ffffff;fill-opacity:1;fill-rule:nonzero;stroke:none;stroke-width:0.1"
       d="m 56.784,7.17109 v -2.675 c 0,0 3.6195,-1.80898 3.6195,-2.12617 0,-0.31289 1.7317,3.06992 1.7317,3.61992 0,0.55235 -0.3934,2.59805 -0.3934,2.59805 L 60.0105,5.59688 c 0,0 -2.2816,1.41718 -3.0687,1.57421" /><path
       id="path132"
       style="fill:#ffffff;fill-opacity:1;fill-rule:nonzero;stroke:none;stroke-width:0.1"
       d="m 63.9453,15.591 1.7309,-1.889 c 0,0 2.0465,0 2.4398,-0.3141 0.3934,-0.3149 -0.1574,2.5172 -0.1574,2.5172 l -1.259,0.709 -0.393,-1.0231 c 0,0 -2.125,0.157 -2.3613,0 v 0" /><path
       id="path134"
       style="fill:#ffffff;fill-opacity:1;fill-rule:nonzero;stroke:none;stroke-width:0.1"
       d="m 67.1719,10.2398 0.3144,-2.67574 c 0,0 5.5086,-1.18008 5.5871,-1.81015 0.0789,-0.62891 0.3934,4.80119 0.3934,4.80119 L 71.2641,11.893 71.0273,9.61016 c 0,0 -2.9113,0.62964 -3.8554,0.62964 v 0" /><path
       id="path136"
       style="fill:#ffffff;fill-opacity:1;fill-rule:nonzero;stroke:none;stroke-width:0.1"
       d="m 73.8023,19.6031 -0.0269,-0.4332 0.2703,-0.4597 -0.6215,-0.0543 c 0,0 -0.1625,-0.2168 -0.1355,-0.325 0.0269,-0.1079 -0.0543,-0.2969 0.757,-0.4598 0.3371,-0.066 0.5992,-0.152 0.9199,-0.1883 0.4535,-0.0527 0.9219,-0.0367 1.0012,0.0274 0.1352,0.107 -1.109,2.082 -2.1645,1.8929 v 0" /><path
       id="path138"
       style="fill:#ffffff;fill-opacity:1;fill-rule:nonzero;stroke:none;stroke-width:0.1"
       d="m 79.8078,15.7621 c 0,0 -0.1617,-1.0012 0.0543,-1.1633 0.2164,-0.1629 0.2438,-0.5687 0.1629,-0.65 -0.0816,-0.0797 -0.0812,-0.1886 -0.2707,-0.1359 -0.1301,0.0383 -0.6973,0.2851 -1.1902,0.3519 -0.2278,0.0313 -0.484,-0.0718 -0.595,-0.0808 -0.3519,-0.027 -0.2171,-0.352 -0.2171,-0.352 0,0 0.4656,-0.582 1.0554,-1.0269 0.711,-0.5379 1.4953,-0.9903 2.3531,-1.109 0.2461,-0.0352 0.6543,-0.1422 1.0008,-0.1902 0.5864,-0.0789 0.4719,0.0941 0.5953,0.1363 0.1625,0.0539 -0.2703,1.8668 -0.541,2.2707 -0.2703,0.407 -1.5961,1.9211 -1.7855,1.9492 -0.1895,0.027 -0.6223,0 -0.6223,0 v 0" /><path
       id="path140"
       style="fill:#2751a7;fill-opacity:1;fill-rule:nonzero;stroke:none;stroke-width:0.1"
       d="m 21.9262,173.996 c 0.8375,0.029 3.3086,-0.24 5.291,-1.81 1.9824,-1.568 6.1941,-5.698 7.2683,-6.607 1.0739,-0.909 6.8555,-8.92 7.104,-9.911 0.2472,-0.992 0.9085,-2.395 0.4949,-2.809 -0.4129,-0.413 -2.3946,-0.082 -2.643,0.578 -0.248,0.661 -7.8469,7.104 -8.9203,7.434 -1.0738,0.33 -7.9301,3.634 -8.9207,4.13 -0.8449,0.422 -4.4926,2.582 -3.484,5.792 0.2156,0.686 0.5945,1.146 0.8945,1.76 0.5321,1.087 2.0786,1.415 2.9153,1.443 v 0" /><path
       id="path142"
       style="fill:#2751a7;fill-opacity:1;fill-rule:nonzero;stroke:none;stroke-width:0.1"
       d="m 20.3066,161.139 c 0,0 1.9649,1.156 4.5661,0.289 2.6007,-0.867 6.416,-3.179 7.1089,-3.584 0.6942,-0.405 6.1266,-4.797 7.3407,-6.011 0.8843,-0.884 5.4918,-6.82 5.607,-7.225 0.1156,-0.404 1.0398,-2.716 0.2883,-3.063 -0.7508,-0.347 -1.3289,0.405 -1.4446,0.751 -0.116,0.347 -7.2242,7.052 -9.421,7.745 -2.1969,0.694 -3.179,1.908 -8.3809,2.37 -5.202,0.462 -9.7106,5.144 -5.6645,8.728 v 0" /><path
       id="path144"
       style="fill:#2751a7;fill-opacity:1;fill-rule:nonzero;stroke:none;stroke-width:0.1"
       d="m 20.9422,150.215 c 0,0 -1.4445,-1.099 -1.5027,-2.775 -0.0579,-1.676 0.7511,-3.93 1.5609,-4.739 0.809,-0.809 2.6582,-1.908 3.5832,-2.023 0.925,-0.116 6.3008,-0.058 7.2832,-0.173 0.982,-0.116 6.6465,-1.908 7.2824,-2.255 0.6356,-0.347 5.3176,-3.121 5.7219,-3.584 0.4047,-0.462 1.7926,-1.561 2.0234,-0.462 0.2313,1.099 -1.5031,3.815 -1.9652,4.046 -0.4625,0.231 -6.3004,6.3 -8.5543,7.745 -2.2547,1.445 -9.1324,4.509 -10.4039,4.624 -1.2719,0.116 -3.5258,0.289 -5.0289,-0.404 v 0" /><path
       id="path146"
       style="fill:#2751a7;fill-opacity:1;fill-rule:nonzero;stroke:none;stroke-width:0.1"
       d="m 29.959,138.655 c 0,0 5.8953,-1.041 8.1492,-1.966 1.8531,-0.759 5.543,-3.578 6.7629,-4.623 0.809,-0.693 2.659,-3.757 2.659,-4.219 0,-0.463 -0.1156,-2.139 -2.3696,-0.521 -2.2546,1.619 -1.7343,1.156 -2.023,1.33 -0.2895,0.173 -3.1789,1.676 -3.8727,1.907 -0.6941,0.231 -2.6011,1.098 -3.757,1.272 -1.1558,0.173 -4.3351,0.115 -5.0863,0.057 -0.7516,-0.058 -3.8727,-0.231 -4.5086,-0.173 -0.6356,0.058 -4.1039,1.503 -2.1387,4.74 1.9656,3.236 6.1848,2.196 6.1848,2.196 v 0" /><path
       id="path148"
       style="fill:#2751a7;fill-opacity:1;fill-rule:nonzero;stroke:none;stroke-width:0.1"
       d="m 28.2824,129.929 c 0,0 -2.0226,-1.445 -2.0226,-2.197 0,-0.752 -0.2317,-1.965 0.5199,-2.659 0.7516,-0.693 1.6762,-1.502 3.6418,-1.791 1.9644,-0.289 6.1262,-0.059 6.8203,-0.059 0.6934,0 6.184,-0.519 7.0512,-0.693 0.8668,-0.173 2.3121,-0.751 3.1793,-1.04 0.8664,-0.289 1.4445,-0.578 1.7336,-0.462 0.2886,0.115 0.116,0.924 -0.3469,1.156 -0.4625,0.23 -4.6817,3.525 -5.4332,3.93 -0.7512,0.405 -4.6817,2.89 -5.8375,3.179 -1.1559,0.289 -5.8375,1.098 -7.2828,0.924 -1.4453,-0.172 -1.3871,-0.057 -2.0231,-0.288 v 0" /><path
       id="path150"
       style="fill:#2751a7;fill-opacity:1;fill-rule:nonzero;stroke:none;stroke-width:0.1"
       d="m 37.2988,121.49 c 0,0 -4.855,0.809 -7.0511,-0.81 -2.1965,-1.617 -0.6356,-3.814 -0.4043,-4.103 0.2308,-0.289 2.9828,-3.008 9.132,-2.774 6.0687,0.23 9.4211,1.271 10.3465,2.08 0.9246,0.81 1.0398,1.676 -0.116,2.543 -1.1563,0.867 -4.1036,2.775 -11.9071,3.064 v 0" /><path
       id="path152"
       style="fill:#2751a7;fill-opacity:1;fill-rule:nonzero;stroke:none;stroke-width:0.1"
       d="m 50.1883,114.033 c 0,0 -1.0977,-0.23 -1.8496,-0.635 -0.7516,-0.405 -3.4102,-1.271 -4.1614,-1.387 -0.7515,-0.116 -1.9656,-0.405 -3.2371,-0.347 -1.2711,0.057 -4.9129,0 -5.7797,0.174 -0.8671,0.173 -2.7746,-0.232 -2.832,-1.041 -0.0582,-0.809 -0.0875,-3.43 2.3121,-4.682 1.3289,-0.694 2.7582,-1.215 3.7567,-1.271 0.6007,-0.034 2.6086,-0.075 4.6824,0.462 3.1211,0.809 6.5887,3.699 6.8773,4.046 0.2895,0.346 2.5231,3.224 1.7344,4.451 -0.5207,0.809 -1.5031,0.23 -1.5031,0.23 v 0" /><path
       id="path154"
       style="fill:#2751a7;fill-opacity:1;fill-rule:nonzero;stroke:none;stroke-width:0.1"
       d="m 51.402,108.139 c 0,0 -2.1965,-1.445 -2.7168,-1.734 -0.52,-0.289 -2.2539,-1.272 -2.8895,-1.503 -0.6359,-0.231 -2.4852,-0.808 -3.2949,-0.925 -0.809,-0.114 -3.6996,-0.461 -4.3348,-0.52 -0.6359,-0.057 -3.0055,-0.52 -3.468,-1.964 -0.4625,-1.445 -0.4628,-2.5438 0.0579,-3.2953 0.5203,-0.7512 1.7918,-2.1961 4.566,-1.8497 2.7742,0.3469 5.5484,1.6762 6.3,2.254 0.7515,0.5789 4.1613,4.046 4.6246,5.087 0.4621,1.041 1.5598,3.583 1.6176,4.104 0.0582,0.52 0,0.346 -0.4621,0.346 v 0" /><path
       id="path156"
       style="fill:#2751a7;fill-opacity:1;fill-rule:nonzero;stroke:none;stroke-width:0.1"
       d="m 52.3266,101.723 c -0.5778,0 -0.8668,0.116 -1.445,-0.462 -0.5781,-0.578 -1.3289,-1.6755 -1.9648,-2.2544 -0.6359,-0.5773 -1.6762,-1.5597 -2.6586,-2.2539 -0.9828,-0.6929 -2.4852,-1.4445 -3.2949,-1.6761 -0.809,-0.2309 -4.3352,-1.0981 -4.9125,-1.3871 -0.5781,-0.2891 -2.3121,-2.1375 -2.6012,-3.8719 -0.2894,-1.7348 0.9824,-3.6992 2.0231,-4.0465 1.0398,-0.3473 3.005,-0.4051 4.2765,0.4625 1.2719,0.8672 4.1621,3.4102 4.9129,4.0457 0.752,0.6355 3.2949,4.1617 4.393,5.8953 1.0984,1.734 2.023,3.4109 1.8496,4.6244 -0.1734,1.213 0.0816,0.924 -0.5781,0.924 v 0" /><path
       id="path158"
       style="fill:#2751a7;fill-opacity:1;fill-rule:nonzero;stroke:none;stroke-width:0.1"
       d="m 50.8816,92.3023 c 0,0 -0.8089,-0.5777 -1.2136,-1.098 -0.4043,-0.5207 -2.4856,-2.3117 -2.8321,-3.0063 -0.3468,-0.6929 -1.7343,-1.907 -2.3121,-2.2539 -0.5781,-0.3461 -2.8902,-1.675 -3.6418,-1.9652 -0.7511,-0.2891 -3.2367,-2.2527 -3.4093,-2.6 -0.1739,-0.348 -1.6188,-2.891 -0.2891,-3.932 1.3289,-1.0399 1.9652,-1.0969 2.4277,-1.0399 0.4617,0.059 2.3114,0.116 3.8727,1.3879 1.5601,1.2711 4.2191,4.161 4.6812,5.086 0.4625,0.925 2.8672,4.4343 3.5254,8.3808 0.2895,1.734 -0.809,1.0406 -0.809,1.0406 v 0" /><path
       id="path160"
       style="fill:#2751a7;fill-opacity:1;fill-rule:nonzero;stroke:none;stroke-width:0.1"
       d="m 50.9398,83.8641 c 0,0 -1.6761,-1.5032 -1.9652,-2.0219 -0.2894,-0.5211 -1.3293,-2.0242 -1.5023,-2.4281 -0.1743,-0.4051 -1.4453,-1.734 -2.0239,-2.3121 -0.5781,-0.579 -1.6183,-1.4461 -2.3125,-1.7348 -0.6929,-0.2883 -3.4675,-2.3692 -3.6984,-2.6 -0.2316,-0.232 -1.4449,-2.1391 -1.6766,-2.832 -0.2308,-0.6942 -0.4043,-2.4282 -0.0574,-2.8911 0.3473,-0.4621 1.5606,-1.7332 2.7742,-1.6179 1.2141,0.116 2.6012,0.5777 3.4106,1.0976 0.8094,0.5203 2.1961,2.0231 3.4676,4.4512 1.2718,2.427 2.7168,5.1441 2.9476,6.2422 0.2317,1.0976 1.3297,5.375 1.2723,5.8379 -0.0582,0.4629 -0.0582,1.098 -0.636,0.809 v 0" /><path
       id="path162"
       style="fill:#ffffff;fill-opacity:1;fill-rule:nonzero;stroke:none;stroke-width:0.1"
       d="m 40.5938,71.3211 -0.1739,-3.2359 2.2543,0.2308 c 0,0 0.8793,0.093 1.5606,0.636 0.348,0.2769 0.5562,0.921 0.7515,1.214 0.5778,0.8668 -0.809,0.3469 -0.809,0.3469 l -1.6187,-0.5777 0.0582,0.2308 -0.0582,2.1961 -1.0977,-0.057 c 0,0 -0.6945,-0.868 -0.8671,-0.984 v 0" /><path
       id="path164"
       style="fill:#ffffff;fill-opacity:1;fill-rule:nonzero;stroke:none;stroke-width:0.1"
       d="M 45.2754,74.848 44.293,73.5762 c 0,0 -0.1157,-1.2141 0.173,-1.2141 0.2887,0 1.3875,0.4051 1.6766,0.577 0.2887,0.1738 0.9824,1.3308 0.9824,1.3308 l -1.2137,-0.1738 0.0575,0.7519 c 0,0 -0.3469,0 -0.6934,0 v 0" /><path
       id="path166"
       style="fill:#ffffff;fill-opacity:1;fill-rule:nonzero;stroke:none;stroke-width:0.1"
       d="m 41.9805,82.0148 c 0,0 -0.4039,-1.7339 -0.2313,-1.7918 0.1735,-0.0582 2.0231,-0.116 2.0231,-0.116 0,0 0.405,-0.116 0.1734,-0.405 -0.2309,-0.2879 -1.3871,-0.925 -1.6758,-0.9809 -0.2894,-0.059 -2.7168,-0.059 -2.7168,-0.059 0,0 0.4047,3.1789 0.5778,3.2359 0.1738,0.059 0.8671,0.4629 1.8496,0.1168 v 0" /><path
       id="path168"
       style="fill:#ffffff;fill-opacity:1;fill-rule:nonzero;stroke:none;stroke-width:0.1"
       d="m 47.4723,86.0027 -1.0989,-1.0398 c 0,0 -0.1734,-1.3879 0,-1.6188 0.1735,-0.232 0.7516,0.1739 1.3297,0.6348 0.5778,0.4633 0.5203,1.041 0.5203,1.041 l -0.6941,-0.057 c 0,0 0.4047,0.866 -0.057,1.0398 v 0" /><path
       id="path170"
       style="fill:#ffffff;fill-opacity:1;fill-rule:nonzero;stroke:none;stroke-width:0.1"
       d="m 40.4777,92.3605 1.4344,0.0583 c 0,0 -0.2363,-0.5985 -0.5527,-1.0672 -0.2793,-0.4161 -0.3856,-0.7657 -0.3313,-0.8465 0.116,-0.1738 0.5485,-0.2832 0.9524,-0.4571 0.4047,-0.173 1.33,-0.3468 1.5605,-0.3468 0.2313,0 0.3473,-0.1731 0.3473,-0.1731 0,0 -1.3293,-1.3875 -1.561,-1.3875 -0.2312,0 -4.3347,-0.1152 -4.2195,0.2903 0.1156,0.4043 1.1426,3.3738 1.3735,3.5464 0.232,0.1735 0.7652,0.1528 0.9964,0.3832 v 0" /><path
       id="path172"
       style="fill:#ffffff;fill-opacity:1;fill-rule:nonzero;stroke:none;stroke-width:0.1"
       d="m 47.6449,96.0602 -0.5777,-0.809 c 0,0 -0.809,-1.3301 -0.809,-1.677 0,-0.3461 0.0129,-0.3469 0.6352,-0.3469 0.4046,0 1.1363,0.3317 1.6187,0.7516 0.3043,0.2649 0.6524,0.7945 0.809,1.0402 0.4051,0.6364 -1.0977,0.1739 -1.0977,0.1739 l 0.0575,0.5781 c 0,0 0.2312,0.4617 -0.4621,0.2891" /><path
       id="path174"
       style="fill:#ffffff;fill-opacity:1;fill-rule:nonzero;stroke:none;stroke-width:0.1"
       d="m 38.2234,101.203 c 0,0 -1.7343,-1.7921 -1.5023,-2.1389 0.2309,-0.3473 2.543,-1.3297 2.832,-1.3871 0.2891,-0.0579 0.341,-0.4735 2.0805,0.5203 0.8094,0.4621 0.1156,0.4625 0.1156,0.4625 l -2.2539,1.3289 0.9824,1.2713 -0.0578,0.521 c 0,0 -1.214,-0.232 -1.8492,-0.578" /><path
       id="path176"
       style="fill:#ffffff;fill-opacity:1;fill-rule:nonzero;stroke:none;stroke-width:0.1"
       d="M 45.7957,102.821 44.157,100.58 c 0.3664,-0.417 0.4493,-0.285 0.611,-0.275 0.641,0.041 1.4035,-0.114 1.5879,0.163 0.1636,0.246 0.3394,0.53 0.4777,0.761 0.1551,0.258 0.266,0.451 0.266,0.451 l -1.0289,0.07 0.4684,0.988 c 0,0 -0.3965,0.257 -0.7434,0.083 v 0" /><path
       id="path178"
       style="fill:#ffffff;fill-opacity:1;fill-rule:nonzero;stroke:none;stroke-width:0.1"
       d="m 34.5844,109.284 c 0,0 1.841,-2.762 2.6879,-2.836 0.8468,-0.073 2.3199,0.038 2.3199,0.038 l -1.5094,1.546 -0.1476,0.368 0.8097,0.11 0.0371,0.405 c 0,0 -0.7367,0.995 -1.0675,1.032 -0.3317,0.037 -1.8047,-0.148 -1.8047,-0.148 0,0 -1.3254,-0.221 -1.3254,-0.515 v 0" /><path
       id="path180"
       style="fill:#ffffff;fill-opacity:1;fill-rule:nonzero;stroke:none;stroke-width:0.1"
       d="m 45.0418,110.204 c 0,0 -1.8777,-1.325 -1.8777,-1.657 0,-0.162 0.0332,-0.491 0.2211,-0.663 0.1964,-0.18 0.5503,-0.201 0.6257,-0.257 0.1465,-0.111 1.7672,-0.221 2.0989,-0.074 0.3304,0.148 0.7363,0.994 0.7363,0.994 l -1.5469,0.258 c 0,0 0.3688,1.362 0.1477,1.436 -0.2207,0.074 -0.1844,-0.037 -0.4051,-0.037 v 0" /><path
       id="path182"
       style="fill:#ffffff;fill-opacity:1;fill-rule:nonzero;stroke:none;stroke-width:0.1"
       d="m 22.477,171.578 c 0,0 -2.3782,-1.09 -2.0805,-1.387 0.2969,-0.297 1.7824,-4.063 2.2789,-4.261 0.4953,-0.198 3.2699,-1.487 3.468,-0.991 0.1976,0.496 -2.2793,4.36 -2.2793,4.36 0,0 1.2882,0.298 1.3875,0.694 0.0988,0.396 0.0988,0.792 -0.6942,1.089 -0.7926,0.298 -0.5941,0.298 -2.0804,0.496 v 0" /><path
       id="path184"
       style="fill:#ffffff;fill-opacity:1;fill-rule:nonzero;stroke:none;stroke-width:0.1"
       d="m 31.8898,164.345 c 0,0 1.9821,0.495 2.3786,0.099 0.3961,-0.397 1.0898,-1.883 1.0898,-1.883 l -1.4863,-0.099 0.1984,-1.982 c 0,0 -1.2887,-0.396 -2.1805,3.865 v 0" /><path
       id="path186"
       style="fill:#ffffff;fill-opacity:1;fill-rule:nonzero;stroke:none;stroke-width:0.1"
       d="m 23.666,159.093 c 0,0 -2.2789,-0.396 -2.2789,-0.694 0,-0.297 2.9723,-4.062 4.0625,-4.459 1.0899,-0.396 2.9727,-0.297 2.9727,-0.297 0,0 -3.6664,4.162 -3.27,4.261 0.3965,0.099 1.1887,0.495 1.1887,0.495 0,0 -1.1883,0.595 -2.675,0.694 v 0" /><path
       id="path188"
       style="fill:#ffffff;fill-opacity:1;fill-rule:nonzero;stroke:none;stroke-width:0.1"
       d="m 34.8629,152.553 2.3777,-0.297 c 0,0 -0.7926,-0.495 -0.5941,-0.793 0.1976,-0.297 0.6933,-1.387 0.6933,-1.387 0,0 -1.7832,0.099 -1.9816,0.495 -0.198,0.397 -0.991,1.388 -0.4953,1.982 v 0" /><path
       id="path190"
       style="fill:#ffffff;fill-opacity:1;fill-rule:nonzero;stroke:none;stroke-width:0.1"
       d="m 24.8551,148.193 c 0,0 -2.7746,-1.486 -2.3781,-1.882 0.3964,-0.397 3.666,-3.27 4.5582,-3.468 0.8914,-0.198 3.0714,-0.595 3.3683,-0.396 0.2977,0.198 -3.3683,2.972 -3.0715,3.269 0.2973,0.298 0.4953,1.189 0.793,1.288 0.2973,0.1 0.7926,0 0.5941,0.397 -0.1976,0.396 -1.9812,0.892 -3.864,0.792 v 0" /><path
       id="path192"
       style="fill:#ffffff;fill-opacity:1;fill-rule:nonzero;stroke:none;stroke-width:0.1"
       d="m 35.9523,143.834 c 0,0 -1.7832,-0.793 -1.4855,-1.09 0.2969,-0.297 1.9812,-2.477 2.3773,-2.576 0.3965,-0.1 1.586,0.099 1.586,0.099 l -1.3875,2.081 0.8918,0.396 0.0992,0.495 c 0,0 -1.0902,0.693 -2.0813,0.595 v 0" /><path
       id="path194"
       style="fill:#ffffff;fill-opacity:1;fill-rule:nonzero;stroke:none;stroke-width:0.1"
       d="m 27.0352,136.7 c 0,0 -1.1895,-1.388 -0.9911,-1.784 0.1985,-0.396 2.5153,-1.784 4.5579,-1.784 0.4957,0 -0.1911,0.589 -0.7926,1.091 -0.6211,0.517 -0.6938,1.188 -0.6938,1.188 l 1.0903,0.694 c 0,0 -0.8918,0.991 -2.0809,0.793" /><path
       id="path196"
       style="fill:#ffffff;fill-opacity:1;fill-rule:nonzero;stroke:none;stroke-width:0.1"
       d="m 38.5293,134.52 -1.6852,-0.992 c 0,0 0.3965,-1.089 1.3875,-1.387 0.9911,-0.297 1.3875,-0.198 1.7832,-0.594 0.3973,-0.396 -0.6929,1.684 -0.6929,1.684 l 0.8914,0.198 0.0996,0.595 c 0,0 -1.0902,0.496 -1.7836,0.496 v 0" /><path
       id="path198"
       style="fill:#ffffff;fill-opacity:1;fill-rule:nonzero;stroke:none;stroke-width:0.1"
       d="m 31.7914,128.079 h 1.5852 l -0.0993,-0.595 -1.189,-1.09 c 0,0 2.5762,-1.189 2.7746,-1.585 0.198,-0.396 -2.9731,-0.397 -3.468,-0.298 -0.4957,0.1 -2.9726,0.892 -2.2793,1.586 0.6938,0.694 1.9821,1.585 2.6758,1.982 v 0" /><path
       id="path200"
       style="fill:#ffffff;fill-opacity:1;fill-rule:nonzero;stroke:none;stroke-width:0.1"
       d="m 39.7184,126.394 c 0,0 1.2879,-0.297 1.5851,-0.495 0.2977,-0.198 -0.198,-0.694 0,-0.991 0.1985,-0.297 0.2977,-0.792 0.4953,-0.991 0.1981,-0.198 -3.264,0.521 -2.9722,1.982 0.1976,0.99 0.5941,0.396 0.8918,0.495 v 0" /><path
       id="path202"
       style="fill:#ffffff;fill-opacity:1;fill-rule:nonzero;stroke:none;stroke-width:0.1"
       d="m 33.6738,119.656 2.477,-0.595 c 0,0 -1.2879,-1.188 -0.8914,-1.485 0.3965,-0.298 2.1801,-1.388 2.2793,-1.785 0.0988,-0.395 -2.2793,-0.494 -2.775,-0.296 -0.4953,0.198 -3.666,1.585 -3.468,2.081 0.1984,0.495 1.8824,2.378 2.2789,2.378" /><path
       id="path204"
       style="fill:#ffffff;fill-opacity:1;fill-rule:nonzero;stroke:none;stroke-width:0.1"
       d="m 43.0867,118.666 c 0,0 -2.0801,-0.694 -2.2781,-1.487 -0.1988,-0.792 2.4769,-1.188 3.8637,-1.288 1.3879,-0.1 -1.5856,1.685 -1.5856,1.685 0,0 1.1891,1.387 0,1.387" /><path
       id="path206"
       style="fill:#ffffff;fill-opacity:1;fill-rule:nonzero;stroke:none;stroke-width:0.1"
       d="m 84.3582,40.2422 0.0617,-0.9793 3.5528,-0.1219 c 0,0 -0.7356,-1.041 -1.5313,-1.041 -0.7965,0 -3.1234,-0.184 -3.1234,0 0,0.1832 -1.2867,1.041 1.0402,2.1422 v 0" /><path
       id="path208"
       style="fill:#ffffff;fill-opacity:1;fill-rule:nonzero;stroke:none;stroke-width:0.1"
       d="M 99.4863,42.1422 98.323,40.9781 c 0,0 -0.4296,-1.3472 0,-1.3472 0.429,0 3.124,0.3671 3.124,0.3671 l 1.469,0.9192 h -2.694 l -0.3681,1.225 h -0.3676 v 0" /><path
       id="path210"
       style="fill:#ffffff;fill-opacity:1;fill-rule:nonzero;stroke:none;stroke-width:0.1"
       d="M 95.6281,39.141 94.5254,38.65 c 0,0 -0.3063,-2.2051 -0.1227,-2.5719 0.1836,-0.3672 2.6344,0 3.1852,0.1219 0.5516,0.123 2.6951,1.1039 2.6951,1.409 0,0.3058 -0.735,0.1219 -0.735,0.1219 L 96.1176,37.3641 95.873,39.141 h -0.2449 v 0" /><path
       id="path212"
       style="fill:#ffffff;fill-opacity:1;fill-rule:nonzero;stroke:none;stroke-width:0.1"
       d="m 106.591,38.5891 c 0,0 -1.163,-1.102 -1.102,-1.3469 0.061,-0.2461 0.367,-1.9613 1.102,-1.9613 0.735,0 3.737,1.1043 3.92,1.5312 0.184,0.4301 -1.103,0.675 -1.103,0.675 l -2.572,-0.9191 0.184,1.959 -0.429,0.0621 v 0" /><path
       id="path214"
       style="fill:#ffffff;fill-opacity:1;fill-rule:nonzero;stroke:none;stroke-width:0.1"
       d="m 110.695,41.5898 c -0.184,0 -0.735,-0.1218 -0.735,-0.1218 0,0 -1.225,-1.7149 -1.103,-2.0219 0.123,-0.3051 1.96,-0.1223 2.451,0 0.244,0.0617 0.933,0.3379 1.346,0.7359 0.414,0.3981 0.552,0.9192 0.552,0.9192 h -0.918 l -1.777,-0.6742 0.367,1.1628" /><path
       id="path216"
       style="fill:#ffffff;fill-opacity:1;fill-rule:nonzero;stroke:none;stroke-width:0.1"
       d="m 124.969,37.3641 0.061,-1.6532 3.307,-1.7148 c 0,0 1.593,0.918 2.021,2.8789 0.429,1.959 -0.918,1.4082 -0.918,1.4082 l -1.103,-1.9602 c 0,0 -3.001,0.9809 -3.368,1.0411 v 0" /><path
       id="path218"
       style="fill:#ffffff;fill-opacity:1;fill-rule:nonzero;stroke:none;stroke-width:0.1"
       d="m 125.888,40.9781 -0.246,-1.409 c 0,0 2.083,-1.5921 2.634,-1.3472 0.551,0.2453 0.919,2.2051 0.919,2.2051 l -0.429,0.6121 c 0,0 -0.551,-1.1641 -0.918,-1.225 -0.368,-0.061 -1.776,1.1031 -1.96,1.164 v 0" /><path
       id="path220"
       style="fill:#ffffff;fill-opacity:1;fill-rule:nonzero;stroke:none;stroke-width:0.1"
       d="m 134.891,39.3859 c 0,0 1.837,-1.4089 2.204,-0.9187 0.368,0.4898 0.186,1.3469 -2.082,1.3469 -0.795,0 -0.122,-0.4282 -0.122,-0.4282 v 0" /><path
       id="path222"
       style="fill:#ffffff;fill-opacity:1;fill-rule:nonzero;stroke:none;stroke-width:0.1"
       d="m 136.239,37.059 1.408,-0.307 c 0,0 1.531,-0.6122 1.838,-0.245 0.306,0.368 0.49,0.9192 0.49,0.9192 l 0.857,-0.9192 0.428,-2.1441 -1.041,-0.1219 c 0,0 -5.083,2.0211 -3.98,2.818 v 0" /><path
       id="path224"
       style="fill:#ffffff;fill-opacity:1;fill-rule:nonzero;stroke:none;stroke-width:0.1"
       d="m 147.079,36.875 c 0,0 -0.154,-0.4539 0.123,-0.675 0.522,-0.4168 1.863,-0.8559 2.143,-0.8559 0.429,0 2.45,0 2.694,0.1207 0.247,0.1231 -0.734,1.225 -1.592,1.5942 -0.856,0.3672 -1.102,0.3051 -1.102,0.3051 l 0.061,-0.4282 0.307,-0.4289 c 0,0 -2.144,0.552 -2.634,0.368 v 0" /><path
       id="path226"
       style="fill:#ffffff;fill-opacity:1;fill-rule:nonzero;stroke:none;stroke-width:0.1"
       d="m 156.816,38.8961 c 0,0 2.082,-1.5922 2.572,-1.6539 0.49,-0.0621 4.531,-0.0613 4.899,0.1219 0.368,0.1839 -1.531,2.1437 -2.082,2.389 -0.552,0.2449 -1.653,0.4289 -1.531,0.184 0.123,-0.2461 0.796,-0.7351 0.551,-0.7961 -0.245,-0.0621 -3.675,-0.1219 -4.409,-0.2449 v 0" /><path
       id="path228"
       style="fill:#ffffff;fill-opacity:1;fill-rule:nonzero;stroke:none;stroke-width:0.1"
       d="m 177.394,40.6102 c 0,0 2.633,-0.0602 2.94,-1.1024 0.307,-1.0406 0.062,-1.2246 0.062,-1.2246 0,0 -1.012,-0.2363 -2.328,-0.1832 -1.358,0.0531 -3.026,0.3969 -3.43,0.427 -0.796,0.0621 -0.061,0.7359 -0.061,0.7359 0,0 2.389,0 2.633,0.123 0.245,0.1219 -0.061,0.6731 0.184,1.2243 v 0" /><path
       id="path230"
       style="fill:#2751a7;fill-opacity:1;fill-rule:nonzero;stroke:none;stroke-width:0.1"
       d="m 121.538,44.4691 c 0,0 -2.756,-1.1031 -3.063,-1.225 -0.305,-0.123 -1.714,-1.348 -1.96,-1.5929 -0.244,-0.2453 -2.143,-2.6332 -2.204,-2.9403 -0.062,-0.3058 -0.673,-2.5711 -0.673,-3.4898 0,-0.9191 1.04,-2.2051 1.592,-2.327 0.551,-0.123 1.592,-0.1851 2.388,0 0.796,0.1829 3.369,2.3868 3.676,3.3059 0.305,0.9191 1.101,4.227 0.979,5.7578 -0.123,1.5301 -0.184,2.5723 -0.735,2.5113 v 0" /><path
       id="path232"
       style="fill:#ffffff;fill-opacity:1;fill-rule:nonzero;stroke:none;stroke-width:0.1"
       d="m 118.412,40.3051 -0.735,-0.1852 v -2.082 c 0,0 0.919,-0.0609 1.286,0.3062 0.367,0.3668 1.959,2.1438 1.959,2.1438 l -1.041,-0.3059 -1.346,-0.6742 c 0,0 0.244,0.5512 -0.123,0.7973 v 0" /><path
       id="path234"
       style="fill:#ffffff;fill-opacity:1;fill-rule:nonzero;stroke:none;stroke-width:0.1"
       d="m 116.084,37.1809 -0.551,-0.0618 -0.307,-1.1632 c 0,0 0.613,-2.0829 1.041,-2.0207 0.43,0.0609 2.634,1.1628 3.186,1.8367 0.552,0.673 0.674,1.5922 -0.429,1.0402 -1.103,-0.55 -1.653,-1.1012 -1.899,-1.1012 -0.244,0 -0.306,1.0411 -1.041,1.47 v 0" /></g></svg>
